<svg xmlns="http://www.w3.org/2000/svg" id="svg-element" fill="inherit" preserveAspectRatio="xMidYMin meet" viewBox="39.92 91.4 314.17 115.88"><g xmlns="http://www.w3.org/2000/svg" id="svgg"><path id="path0" d="" stroke="none" fill="#fc6404" fill-rule="evenodd"/><path id="path1" d="M148.93 91.98C139.51 95.02 138.52 106.55 146.67 112.2 154.56 117.71 166.03 114.18 167.55 105.69 169.11 97.09 158.59 89.17 148.93 91.98M277.73 107.46C266.7 106 257.28 104.93 256.81 104.86Q256.39 104.81 255.97 104.75 255.39 106.06 254.81 107.37C244.77 129.88 243.89 156.34 251.64 168.9 257.42 178.62 272.01 186.14 286.06 186.33 287.89 186.34 290.55 186.07 290.67 185.86 290.72 185.78 290.15 182.55 289.42 178.69 288.68 174.83 288.08 171.64 288.08 171.62 288.08 171.61 287.53 171.72 286.85 171.88 272.91 174.96 264.38 168.51 265.1 155.2Q265.21 153.56 265.31 151.91 265.92 152.03 266.55 152.15C268.42 152.52 285.71 156.77 286.33 156.98Q286.6 157.07 286.87 157.16 287.36 153.73 287.87 150.26 288.38 146.77 288.9 143.24 288.18 143.02 287.48 142.81C286.68 142.58 281.73 141.25 276.44 139.93 271.14 138.67 266.77 137.69 266.76 137.66 266.61 137.47 269.74 122.4 269.96 122.26 270.01 122.23 275.78 123.05 282.79 124.19 289.79 125.44 295.56 126.53 295.58 126.51 295.65 126.47 298.49 112.39 298.59 111.62 298.66 111.09 298.6 110.97 298.23 110.9 297.98 110.85 288.76 109.19 277.73 107.46M205.95 99.04C181.87 100 170.06 121.6 177.32 145.64 182.69 163.03 207.64 171.27 226.71 165.36 236.88 162.33 241.41 153.94 242.49 134.89 242.5 134.73 239.24 134.13 226.76 132.29Q218.86 131.37 210.96 130.63 210.95 130.8 210.96 130.99C210.99 132.14 210.24 141.75 210.08 142.42Q210.03 142.58 209.99 142.74 213.45 143.07 216.92 143.44 220.38 143.86 223.83 144.32 223.76 144.82 223.69 145.33C222.32 154.39 210.88 157.9 202.7 152.61 195.27 148.02 191.87 134.31 196.4 125.38 202.25 114.02 214.76 112.6 225.36 122.51Q226.2 123.32 227.04 124.12 229.49 120.79 232 117.4 234.54 113.98 237.13 110.5 236.92 110.32 236.71 110.14C229.03 103.68 215.97 98.97 205.95 99.04M52.78 121.38C38.36 130.48 35.62 152.66 46.88 160.68 51.27 163.97 55.84 165.6 66.74 168 74.72 169.91 77.12 170.85 78.84 172.68 83.27 177.5 77.41 180.38 62.38 180.92Q60.96 180.98 59.52 181.04 59.48 181.31 59.45 181.58C59.33 182.44 59.01 186.23 58.77 189.98 58.56 194.13 58.3 199.32 58.2 200.13Q58.17 200.43 58.13 200.72 58.7 200.93 59.28 201.14C68.57 204.85 82.16 199.62 90.94 189.91 98.6 182.48 102.09 170.71 97.69 164.05 94.61 159.49 89.08 156.56 76.14 152.76 64.06 149.47 60.75 147.71 60.88 144.41 61.17 138.54 69.98 136.92 83.5 140.47 84.42 140.73 85.21 140.85 85.25 140.74 85.33 140.56 88.68 123.98 88.82 123.08 88.89 122.68 88.72 122.57 86.94 121.9 73.16 116.85 61.54 116.59 52.78 121.38M91.46 109.91C92.65 141.5 102.17 170.19 112.91 176.56 121.12 181.04 137.71 174.82 146.99 165.19Q147.26 164.92 147.53 164.65 145.47 161.85 143.39 158.95 141.25 155.97 139.07 152.91 138.22 153.52 137.37 154.15C131.55 158.55 126.15 160.11 122.53 158.2 115.44 154.37 111.24 135.48 111.51 107.48 111.52 106.28 111.5 105.27 111.48 105.25 111.44 105.24 106.86 105.99 101.34 107.03Q96.37 108.05 91.44 109.15 91.46 109.53 91.46 109.91M314.63 119.24C313.09 118.87 311.08 118.42 310.18 118.24Q309.35 118.07 308.53 117.92 308.23 119.77 307.94 121.63C307.61 123.65 304.36 141.16 300.67 159.7 297.3 177.43 295.06 191.74 295.01 192.17Q294.97 192.55 294.92 192.94 298.97 195 302.95 197.08 306.86 199.18 310.67 201.29 311.5 196.77 312.41 192.22 313.41 187.66 314.49 183.06 318.68 189.02 322.61 195.01C326.62 201.66 329.69 207.18 329.76 207.27 329.83 207.36 332.6 204.98 336.37 201.76Q339.89 198.91 343.59 196.06 339.96 191.18 336.14 186.28 332.16 181.38 327.98 176.5 328.34 176.29 328.71 176.08C341.7 169.02 347.4 164.76 351.66 158.33 355.94 151.9 354.41 141.56 348.04 135.2 342.27 129.64 327.99 122.71 314.63 119.24M327.6 139.52C335.43 146.96 331.79 157.06 319.68 164.09Q319.34 164.3 319 164.51 320.65 158 322.31 151.4 323.94 144.71 325.52 137.89 325.77 138.05 326.03 138.21C326.3 138.39 327.01 138.98 327.6 139.52M146.61 119.67C146.62 120.06 148.23 130.68 150 142.66 151.6 153.92 152.9 163.76 153.07 165.26Q153.23 166.6 153.37 167.92 158.2 167.02 163.05 166.25 167.92 165.61 172.81 165.11 172.52 163.2 172.23 161.26C171.9 159.06 170.68 150.38 169.42 141.5 168.09 132.11 166.67 122.61 166.37 120.81Q166.09 119.14 165.81 117.48 160.97 117.75 156.15 118.08 151.35 118.48 146.57 118.94 146.59 119.3 146.61 119.67" stroke="none" fill="#040404" fill-rule="evenodd"/><path id="path2" d="" stroke="none" fill="#1003404" fill-rule="evenodd"/><path id="path3" d="" stroke="none" fill="#443404" fill-rule="evenodd"/><path id="path4" d="" stroke="none" fill="#043804" fill-rule="evenodd"/></g></svg>